<?xml version="1.0" encoding="utf-8"?>
<!-- Generator: Adobe Illustrator 16.0.0, SVG Export Plug-In . SVG Version: 6.00 Build 0)  -->
<!DOCTYPE svg PUBLIC "-//W3C//DTD SVG 1.1//EN" "http://www.w3.org/Graphics/SVG/1.1/DTD/svg11.dtd">
<svg version="1.1" id="Vector" xmlns="http://www.w3.org/2000/svg" xmlns:xlink="http://www.w3.org/1999/xlink" x="0px" y="0px"
	 width="333.489px" height="466.015px" viewBox="0 0 333.489 466.015" enable-background="new 0 0 333.489 466.015"
	 xml:space="preserve">
<path d="M167.275,466.015l-1.329-0.019c-0.129-0.008-12.984-0.868-20.515-0.868c-8.367,0-53.835-7.123-67.612-14.011
	c-12.935-6.466-23.484-20.201-35.274-45.928c-9.674-21.106-22.601-68.29-29.509-101.713C6.771,273.173,2.944,228.305,0.611,197.192
	c-2.682-35.765,4.216-91.482,6.21-104.445c1.89-12.285,4.051-16.131,8.758-23.658l0.261-0.417
	c6.07-9.712,30.461-31.333,63.535-46.897C108.299,8.165,136.412,1.048,165.322,0.02c0.729-0.025,2.17-0.027,2.89,0.002
	c24.092,1.002,55.904,4.403,88.374,21.956c33.207,17.949,55.699,38.109,61.063,46.691l0.26,0.415
	c4.708,7.529,6.869,11.376,8.759,23.663c1.994,12.965,8.892,68.688,6.211,104.446c-2.619,34.914-6.142,74.837-12.414,106.233
	c-5.407,27.067-19.031,78.882-29.52,101.767c-11.791,25.729-22.341,39.465-35.274,45.931c-13.771,6.885-59.242,14.006-67.612,14.006
	c-7.538,0-20.386,0.86-20.515,0.868L167.275,466.015z M166.794,15.999c-0.339,0-0.682,0.003-0.907,0.011
	c-26.701,0.95-52.772,7.572-79.699,20.243C54.69,51.076,33.103,71.242,29.408,77.154l-0.262,0.42
	c-3.973,6.353-5.041,8.061-6.509,17.606c-1.818,11.818-8.613,66.903-6.07,100.816c2.3,30.67,6.061,74.846,12.138,104.242
	c6.728,32.549,19.185,78.211,28.385,98.285c10.009,21.839,18.609,33.646,27.884,38.283c10.552,5.275,53.007,12.321,60.458,12.321
	c7.524,0,19.308,0.754,21.313,0.887c2.006-0.133,13.789-0.887,21.313-0.887c7.453,0,49.911-7.044,60.457-12.317
	c9.275-4.637,17.875-16.444,27.885-38.285c9.609-20.968,23.003-71.347,28.375-98.235c6.103-30.549,9.565-69.864,12.148-104.294
	c2.542-33.905-4.252-88.998-6.07-100.817c-1.468-9.548-2.536-11.256-6.511-17.612l-0.261-0.417
	c-3.607-5.771-24.094-24.335-55.104-41.097c-29.418-15.902-57.67-19.056-81.427-20.044C167.364,16,167.081,15.999,166.794,15.999z"
	/>
<polygon points="20.782,97.015 167.282,215.015 315.282,96.515 316.282,115.515 166.782,225.015 14.282,113.515 "/>
<path d="M161.782,218.515c0,0-19,59-34.5,91.5s-35,70-41,80.5s-18.5,26.5-21,27.5s9.5,18,9.5,18l31.5,11.5c0,0-7.5-21.5-5-35
	s27.5-65,34.5-81.5c3.345-7.885,12.458-31.296,19.027-54.358c7.18-25.201,12.712-49.986,12.973-53.642
	C168.282,216.015,161.782,218.515,161.782,218.515z"/>
<path d="M172.965,216.515c0,0,19,59,34.5,91.5s35,70,41,80.5s18.5,26.5,21,27.5s-9.5,18-9.5,18l-31.5,11.5c0,0,7.5-21.5,5-35
	s-27.5-65-34.5-81.5c-3.346-7.885-12.457-31.296-19.027-54.358c-7.18-25.201-12.712-49.986-12.973-53.642
	C166.465,214.015,172.965,216.515,172.965,216.515z"/>
<path d="M41.782,361.015c23.382-23.282,39.622-48.146,55-77c-3.861,30.405-17.243,57.081-32.195,83.372
	c-3.787,6.658-7.518,13.397-11.729,19.802c-2.637,4.011-3.093,2.695-4.476-1.284C45.572,377.815,43.686,369.354,41.782,361.015z"/>
<path d="M17.782,292.015c27.233-24.991,50.973-51.97,72.501-82c-7.514,29.279-22.049,55.076-39.828,79.321
	c-2.5,3.409-24.55,30.75-25.961,27.757C20.884,309.434,19.548,300.251,17.782,292.015z"/>
<path d="M15.449,212.683c9.916-9.128,18.988-18.789,28.185-28.623c4.003-4.281,7.749-8.706,11.441-13.26
	c1.501-1.852,8.669-8.474,8.665-10.763c0.023,10.684-8.369,24.7-13.208,33.774c-7.217,13.53-15.351,26.063-24.284,38.484
	c-0.919,1.278-6.782,11.279-8.967,10.23c-1.823-0.875-3.797-5.546-3.638-7.506C14.244,227.574,14.847,220.128,15.449,212.683z"/>
<path d="M291.616,362.015c-23.382-23.282-39.622-48.145-55-77c3.86,30.405,17.243,57.081,32.194,83.372
	c3.787,6.658,7.519,13.397,11.729,19.802c2.637,4.011,3.093,2.695,4.477-1.284C287.826,378.815,289.711,370.354,291.616,362.015z"/>
<path d="M315.616,293.015c-27.233-24.991-50.973-51.97-72.501-82c7.514,29.279,22.05,55.076,39.827,79.321
	c2.5,3.409,24.55,30.75,25.961,27.757C312.513,310.434,313.849,301.251,315.616,293.015z"/>
<path d="M317.949,213.683c-9.916-9.128-18.988-18.789-28.186-28.623c-4.003-4.281-7.749-8.706-11.441-13.26
	c-1.501-1.853-8.669-8.473-8.664-10.763c-0.021,10.684,8.368,24.7,13.209,33.774c7.218,13.53,15.351,26.063,24.284,38.484
	c0.919,1.277,6.782,11.279,8.966,10.23c1.822-0.875,3.797-5.546,3.639-7.506C319.153,228.574,318.551,221.128,317.949,213.683z"/>
<path d="M169.282,411.015c3.339,1.945,33.148,18.608,34.757,15.55c-0.343,0.652-37.557-28.993-40.507-31.925
	c-3.13,2.954-40.44,30.616-40.985,29.667c1.79,3.114,22.015-6.074,24.345-7.263c3.106-1.585,5.912-3.506,8.783-5.462
	C161.202,407.818,163.532,407.664,169.282,411.015C172.864,413.102,167.639,410.058,169.282,411.015z"/>
<path d="M172.282,370.015c3.329,1.938,33.147,18.608,34.757,15.55c-0.175,0.333-17.646-12.524-18.85-13.443
	c-7.582-5.796-15.023-11.584-21.657-18.481c-6.371,6.641-13.521,12.098-21.226,17.09c-1.439,0.933-20.055,11.888-19.75,12.553
	c1.324,2.891,21.127-6.092,23.167-7.147C155.998,372.371,163.974,365.182,172.282,370.015
	C175.864,372.1,170.638,369.059,172.282,370.015z"/>
<path d="M144.282,342.015c9.286-7.397,15.953-15.921,18.68-27.785c1.911-8.312,2.062-17.246,3.07-25.715
	c0.925,7.491,1.663,15.058,3.002,22.488c1.162,6.449,3.074,12.622,6.664,18.151c1.889,2.909,3.989,5.731,6.396,8.235
	c1.16,1.207,3.696,2.52,4.51,3.911c-0.208-0.354-6.206-1.708-7.055-2.033c-4.167-1.599-8.295-5.182-12.768-5.503
	c-4.46-0.318-8.683,3.427-12.745,4.946C150.821,339.914,147.557,340.988,144.282,342.015z"/>
<g id="Eyes">
	<g>
		<g>
			<path d="M165.358,160.482c-0.084-0.095-0.172-0.196-0.258-0.293C165.174,160.273,165.258,160.368,165.358,160.482z"/>
			<path d="M165.057,160.14c-0.065-0.075-0.124-0.142-0.178-0.202C164.928,159.992,164.985,160.058,165.057,160.14z"/>
			<path d="M165.441,160.577c-0.027-0.031-0.059-0.066-0.083-0.095C165.387,160.515,165.414,160.545,165.441,160.577z"/>
			<path d="M165.643,160.807c-0.012-0.013-0.02-0.022-0.031-0.035C165.623,160.784,165.633,160.796,165.643,160.807z"/>
			<path d="M165.612,160.771c-0.047-0.054-0.105-0.12-0.171-0.195C165.496,160.64,165.549,160.7,165.612,160.771z"/>
			<path d="M164.879,159.938c-0.045-0.052-0.081-0.092-0.107-0.123C164.801,159.848,164.837,159.889,164.879,159.938z"/>
			<path d="M165.1,160.189c-0.014-0.016-0.03-0.035-0.043-0.049C165.072,160.156,165.085,160.172,165.1,160.189z"/>
			<path d="M275.737,89.015c-3.729-6.403-21.289-9.572-27.768-12.078c-13.589-5.256-25.784-4.888-39.996-3.124
				c-13.022,1.616-26.698,7.202-39.736,7.202h-1.455c-13.039,0-26.714-5.586-39.736-7.202c-14.212-1.764-26.407-2.133-39.997,3.124
				c-6.478,2.506-24.039,5.675-27.767,12.078c-4.196,7.206,3.054,16.724,10.5,13.001c5.123-2.562,10.183-5.715,14.825-9.064
				c3.999-2.886,5.321,4.529,7.007,7.564c7.69,13.837,19.609,23.851,35.165,27.661c7.111,1.742,14.882,2.726,21.921,0.141
				c2.964-1.088,7.19-5.245,8.445-0.126c2.669,10.891,0.394,23.384,8.534,32.656c-0.012-0.013-0.021-0.024-0.036-0.041
				c0.014,0.016,0.022,0.025,0.036,0.042c0.065,0.074,0.053,0.06,0,0c0.624,0.634,1.269,1.246,1.936,1.834
				c7.483-8.145,9.332-20.201,9.758-30.834c0.233-5.836,1.487-7.032,6.113-4.743c6.562,3.247,13.632,3.184,20.679,1.93
				c15.952-2.838,29.357-11.93,37.683-25.82c0.709-1.183,5.85-12.739,7.39-11.199c3.742,3.743,9.517,6.409,14.091,8.973
				c4.938,2.769,7.104,4.905,10.409-0.568C275.834,96.948,277.848,92.64,275.737,89.015z M192.612,89.765
				c0.686-2.965,3.646-4.028,6.291-3.417c2.646,0.611,3.645,2.826,2.959,5.792c-0.684,2.964-3.914,4.612-6.561,4
				C192.656,95.529,191.928,92.729,192.612,89.765z M136.115,86.348c2.646-0.611,5.606,0.451,6.292,3.417
				c0.684,2.964-0.044,5.765-2.689,6.375c-2.646,0.611-5.876-1.037-6.561-4C132.472,89.174,133.469,86.959,136.115,86.348z
				 M140.832,120.057c-7.528,1.742-16.124-0.219-22.999-3.348c-10.473-4.767-17.312-13.275-22.823-23.077
				c-0.897-1.596-4.763-7.456-3.375-9.426c1.218-1.729,5.276-2.761,7.229-2.066c-0.425-0.151-1.201-0.428,0.001,0
				c0.36,0.128,0.232,0.083,0.001,0c3.307,1.18,6.603,6.868,8.929,9.318c3.583,3.775,7.533,7.002,11.923,9.794
				c7.015,4.461,16.144,8.383,24.562,6.402c9.035-2.125,12.704-9.709,15.876-17.641c1-2.498,4.526,0.93,3.809,3.205
				c-0.925,2.931-2.327,5.746-3.716,8.478C155.984,110.089,150.578,117.802,140.832,120.057z M170.331,121.432
				c-1.5,3-2.5,5.458-2.5,5.458l-2.715-5.542c-1.5-3-2.667-7-2.167-9.333s1.985-5.15,3.5-6c0.556-0.312,1.973-0.273,2.549,0
				c1.569,0.744,3,3.667,3.5,6S171.831,118.432,170.331,121.432z M240.007,93.631c-5.511,9.802-12.349,18.31-22.822,23.077
				c-6.875,3.129-15.471,5.09-22.999,3.348c-9.745-2.255-15.151-9.967-19.417-18.359c-1.389-2.732-2.791-5.547-3.716-8.478
				c-0.718-2.275,2.809-5.703,3.809-3.205c3.173,7.932,6.842,15.516,15.877,17.641c8.418,1.98,17.547-1.941,24.562-6.402
				c4.39-2.792,8.34-6.02,11.923-9.794c2.326-2.45,5.621-8.136,8.928-9.318c-0.23,0.082-0.356,0.127,0.002-0.001
				c1.2-0.428,0.428-0.152,0.003-0.001c1.953-0.693,6.009,0.337,7.227,2.067C244.771,86.176,240.905,92.035,240.007,93.631z"/>
			<path d="M164.772,159.815C164.689,159.721,164.673,159.703,164.772,159.815L164.772,159.815z"/>
		</g>
	</g>
</g>
</svg>
